# xmcd
#
# Track frame offsets: 
#        150
#        19294
#        34828
#        46587
#        60264
#        77623
#        98362
#        112086
#        128055
#        141472
#        154871
#        173125
#        186061
#        198805
#        212812
#
# Disc length: 3009 seconds
#
# Revision: 0
# Processed by: cddbd v1.5.2PL0 Copyright (c) Steve Scherf et al.
# Submitted via: ExactAudioCopyFreeDBPlugin 1.0
#
DISCID=c00bbf0f
DTITLE=蔡琴 - 蔡琴傳奇2
DYEAR=1900
DGENRE=
TTITLE0=意難忘
TTITLE1=綠島小夜曲
TTITLE2=夢裡相思
TTITLE3=魂縈舊夢
TTITLE4=懷念
TTITLE5=初戀女
TTITLE6=庭院深深
TTITLE7=我有一段情
TTITLE8=戀痕
TTITLE9=願嫁漢家郎
TTITLE10=飄零的落花
TTITLE11=情人山
TTITLE12=空中歌聲
TTITLE13=昨夜你對我一笑
TTITLE14=明月千里寄相思
EXTD=
EXTT0=
EXTT1=
EXTT2=
EXTT3=
EXTT4=
EXTT5=
EXTT6=
EXTT7=
EXTT8=
EXTT9=
EXTT10=
EXTT11=
EXTT12=
EXTT13=
EXTT14=
PLAYORDER=
